<svg width="56" height="16" viewBox="0 0 56 16" fill="none" xmlns="http://www.w3.org/2000/svg">
<path d="M23.8273 4.50158C22.1598 4.7227 20.9427 6.2153 20.9427 7.90533V12.9991H22.2388V10.4483C22.9264 10.9774 23.8194 11.2538 24.7836 11.1195C26.2219 10.9142 27.3836 9.7533 27.597 8.31599C27.921 6.09684 26.048 4.20938 23.8273 4.50158ZM24.7599 9.80859C23.2662 10.1403 21.9622 8.83722 22.2941 7.34462C22.4601 6.59437 23.0686 5.98628 23.8194 5.82043C25.3131 5.48875 26.617 6.79181 26.2851 8.2844C26.1192 9.03465 25.5106 9.64274 24.7599 9.80859Z" fill="#4A4A4A"/>
<path d="M46.6667 11.1589C44.6989 11.1589 43.1262 9.4531 43.3475 7.44717C43.5134 5.92299 44.7463 4.67521 46.2715 4.50147C47.3068 4.38301 48.3105 4.73049 49.0297 5.45705L48.1129 6.37314C47.6467 5.90719 46.9986 5.69397 46.3269 5.79663C45.4971 5.93089 44.8095 6.58636 44.6515 7.41558C44.3986 8.71865 45.4022 9.86376 46.6588 9.86376C47.2041 9.86376 47.7178 9.65053 48.105 9.26356L49.0218 10.1797C48.3974 10.8114 47.5518 11.1589 46.6667 11.1589Z" fill="#4A4A4A"/>
<path d="M32.2044 4.50942C29.9916 4.20932 28.1107 6.10468 28.4347 8.32383C28.6481 9.76115 29.8098 10.9221 31.2481 11.1274C32.2044 11.2695 33.1053 10.9931 33.7929 10.4561V11.0247H35.0889V7.91317C35.0889 6.22314 33.8798 4.73054 32.2044 4.50942ZM32.2123 9.80853C30.7186 10.1402 29.4146 8.83716 29.7466 7.34456C29.9125 6.59432 30.5211 5.98622 31.2718 5.82038C32.7655 5.48869 34.0695 6.79175 33.7375 8.28435C33.5716 9.03459 32.971 9.64269 32.2123 9.80853Z" fill="#4A4A4A"/>
<path d="M39.6647 4.50154C37.4519 4.20145 35.571 6.09681 35.895 8.31596C36.1084 9.75327 37.2701 10.9142 38.7085 11.1195C39.6647 11.2538 40.5657 10.9853 41.2532 10.4482V11.0168H42.5493V7.90529C42.5493 6.22316 41.3401 4.73057 39.6647 4.50154ZM39.6726 9.80855C38.179 10.1402 36.875 8.83718 37.2069 7.34458C37.3729 6.59434 37.9814 5.98624 38.7322 5.8204C40.2258 5.48871 41.5298 6.79177 41.1979 8.28437C41.0319 9.03461 40.4234 9.64271 39.6726 9.80855Z" fill="#4A4A4A"/>
<path d="M53.0681 7.22615L55.5022 4.90433H53.6292L51.0686 7.34461V4.90433V3.00897H49.7726V11.0564H50.4206H51.0686V9.12941L52.1276 8.12645L54.372 11.0564H56L53.0681 7.22615Z" fill="#4A4A4A"/>
<path d="M0 10.6693L2.94778 8.97139C3.98306 8.37909 5.25543 8.37909 6.28281 8.97139L9.23059 10.6772L6.28281 12.383C5.24753 12.9753 3.97516 12.9753 2.94778 12.383L0 10.6693Z" fill="#4A4A4A"/>
<path d="M9.23849 5.33865L12.1863 3.63282C13.2216 3.04052 14.4939 3.04052 15.5213 3.63282L18.4691 5.33865L15.5213 7.04447C14.486 7.63677 13.2137 7.63677 12.1863 7.04447L9.23849 5.33865Z" fill="#4A4A4A"/>
<path d="M9.23849 16.0001V12.5963C9.23849 11.4038 9.87863 10.3061 10.906 9.70589L13.8538 8.00006V11.4038C13.8538 12.5963 13.2137 13.694 12.1863 14.2942L9.23849 16.0001Z" fill="#4A4A4A"/>
<path d="M4.6153 8V4.59625C4.6153 3.40375 5.25543 2.30602 6.28281 1.70582L9.23059 0V3.40375C9.23059 4.59625 8.59046 5.69398 7.56308 6.29418L4.6153 8Z" fill="#4A4A4A"/>
</svg>
